<svg width="600" height="200" viewBox="0 0 600 200" fill="none" xmlns="http://www.w3.org/2000/svg">
<path d="M100.908 64.1365H0.5V167.682H100.908V64.1365Z" fill="#A9CAB0" stroke="black"/>
<path d="M200.626 14.1365H100.218V167.681H200.626V14.1365Z" fill="#D9D9D9" stroke="black"/>
<path d="M300.345 52.0151H199.937V167.682H300.345V52.0151Z" fill="#D9D9D9" stroke="black"/>
<path d="M400.063 41.4092H299.655V167.682H400.063V41.4092Z" fill="#D9D9D9" stroke="black"/>
<path d="M499.781 20.197H399.373V167.682H499.781V20.197Z" fill="#D9D9D9" stroke="black"/>
<path d="M599.5 76.2576H499.092V167.682H599.5V76.2576Z" fill="#D9D9D9" stroke="black"/>
<path d="M52.315 158.035C47.1017 158.035 42.425 157.115 38.285 155.275C34.145 153.358 30.8483 150.79 28.395 147.57C26.0183 144.35 24.715 140.785 24.485 136.875H40.7C41.0067 139.328 42.195 141.36 44.265 142.97C46.4117 144.58 49.0567 145.385 52.2 145.385C55.2667 145.385 57.6433 144.772 59.33 143.545C61.0933 142.318 61.975 140.747 61.975 138.83C61.975 136.76 60.9017 135.227 58.755 134.23C56.685 133.157 53.35 132.007 48.75 130.78C43.9967 129.63 40.0867 128.442 37.02 127.215C34.03 125.988 31.4233 124.11 29.2 121.58C27.0533 119.05 25.98 115.638 25.98 111.345C25.98 107.818 26.9767 104.598 28.97 101.685C31.04 98.7717 33.9533 96.4717 37.71 94.785C41.5433 93.0983 46.0283 92.255 51.165 92.255C58.755 92.255 64.8117 94.1717 69.335 98.005C73.8583 101.762 76.35 106.86 76.81 113.3H61.4C61.17 110.77 60.0967 108.777 58.18 107.32C56.34 105.787 53.8483 105.02 50.705 105.02C47.7917 105.02 45.53 105.557 43.92 106.63C42.3867 107.703 41.62 109.198 41.62 111.115C41.62 113.262 42.6933 114.91 44.84 116.06C46.9867 117.133 50.3217 118.245 54.845 119.395C59.445 120.545 63.24 121.733 66.23 122.96C69.22 124.187 71.7883 126.103 73.935 128.71C76.1583 131.24 77.3083 134.613 77.385 138.83C77.385 142.51 76.35 145.807 74.28 148.72C72.2867 151.633 69.3733 153.933 65.54 155.62C61.7833 157.23 57.375 158.035 52.315 158.035Z" fill="black"/>
<path d="M152.68 106.515V137.335C152.68 139.482 153.178 141.053 154.175 142.05C155.248 142.97 157.012 143.43 159.465 143.43H166.94V157H156.82C143.25 157 136.465 150.407 136.465 137.22V106.515H128.875V93.29H136.465V77.535H152.68V93.29H166.94V106.515H152.68Z" fill="black"/>
<path d="M248.035 103.18C250.105 99.8067 252.788 97.1617 256.085 95.245C259.458 93.3283 263.292 92.37 267.585 92.37V109.275H263.33C258.27 109.275 254.437 110.463 251.83 112.84C249.3 115.217 248.035 119.357 248.035 125.26V157H231.935V93.29H248.035V103.18Z" fill="black"/>
<path d="M348.1 85.7C345.263 85.7 342.887 84.8183 340.97 83.055C339.13 81.215 338.21 78.9533 338.21 76.27C338.21 73.5867 339.13 71.3633 340.97 69.6C342.887 67.76 345.263 66.84 348.1 66.84C350.937 66.84 353.275 67.76 355.115 69.6C357.032 71.3633 357.99 73.5867 357.99 76.27C357.99 78.9533 357.032 81.215 355.115 83.055C353.275 84.8183 350.937 85.7 348.1 85.7ZM356.035 93.29V157H339.935V93.29H356.035Z" fill="black"/>
<path d="M413.795 123.915C413.795 117.475 415.06 111.763 417.59 106.78C420.197 101.797 423.723 97.9633 428.17 95.28C432.617 92.5967 437.562 91.255 443.005 91.255C447.145 91.255 451.093 92.175 454.85 94.015C458.607 95.7783 461.597 98.155 463.82 101.145V70.9H480.15V156H463.82V146.57C461.827 149.713 459.028 152.243 455.425 154.16C451.822 156.077 447.643 157.035 442.89 157.035C437.523 157.035 432.617 155.655 428.17 152.895C423.723 150.135 420.197 146.263 417.59 141.28C415.06 136.22 413.795 130.432 413.795 123.915ZM463.935 124.145C463.935 120.235 463.168 116.9 461.635 114.14C460.102 111.303 458.032 109.157 455.425 107.7C452.818 106.167 450.02 105.4 447.03 105.4C444.04 105.4 441.28 106.128 438.75 107.585C436.22 109.042 434.15 111.188 432.54 114.025C431.007 116.785 430.24 120.082 430.24 123.915C430.24 127.748 431.007 131.122 432.54 134.035C434.15 136.872 436.22 139.057 438.75 140.59C441.357 142.123 444.117 142.89 447.03 142.89C450.02 142.89 452.818 142.162 455.425 140.705C458.032 139.172 460.102 137.025 461.635 134.265C463.168 131.428 463.935 128.055 463.935 124.145Z" fill="black"/>
<path d="M580.16 122.765C580.16 125.065 580.007 127.135 579.7 128.975H533.125C533.508 133.575 535.118 137.178 537.955 139.785C540.792 142.392 544.28 143.695 548.42 143.695C554.4 143.695 558.655 141.127 561.185 135.99H578.55C576.71 142.123 573.183 147.183 567.97 151.17C562.757 155.08 556.355 157.035 548.765 157.035C542.632 157.035 537.112 155.693 532.205 153.01C527.375 150.25 523.58 146.378 520.82 141.395C518.137 136.412 516.795 130.662 516.795 124.145C516.795 117.552 518.137 111.763 520.82 106.78C523.503 101.797 527.26 97.9633 532.09 95.28C536.92 92.5967 542.478 91.255 548.765 91.255C554.822 91.255 560.227 92.5583 564.98 95.165C569.81 97.7717 573.528 101.49 576.135 106.32C578.818 111.073 580.16 116.555 580.16 122.765ZM563.485 118.165C563.408 114.025 561.913 110.728 559 108.275C556.087 105.745 552.522 104.48 548.305 104.48C544.318 104.48 540.945 105.707 538.185 108.16C535.502 110.537 533.853 113.872 533.24 118.165H563.485Z" fill="black"/>
</svg>
