<svg width="889" height="337" viewBox="0 0 889 337" fill="none" xmlns="http://www.w3.org/2000/svg">
<rect x="144.5" y="64.1365" width="100.408" height="103.545" fill="#A9CAB0" stroke="black"/>
<rect x="244.218" y="14.1365" width="100.408" height="153.545" fill="#D9D9D9" stroke="black"/>
<rect x="343.937" y="52.0151" width="100.408" height="115.667" fill="#D9D9D9" stroke="black"/>
<rect x="443.655" y="41.4092" width="100.408" height="126.273" fill="#D9D9D9" stroke="black"/>
<rect x="543.373" y="20.197" width="100.408" height="147.485" fill="#D9D9D9" stroke="black"/>
<rect x="643.092" y="76.2576" width="100.408" height="91.4242" fill="#D9D9D9" stroke="black"/>
<path d="M196.315 158.035C191.102 158.035 186.425 157.115 182.285 155.275C178.145 153.358 174.848 150.79 172.395 147.57C170.018 144.35 168.715 140.785 168.485 136.875H184.7C185.007 139.328 186.195 141.36 188.265 142.97C190.412 144.58 193.057 145.385 196.2 145.385C199.267 145.385 201.643 144.772 203.33 143.545C205.093 142.318 205.975 140.747 205.975 138.83C205.975 136.76 204.902 135.227 202.755 134.23C200.685 133.157 197.35 132.007 192.75 130.78C187.997 129.63 184.087 128.442 181.02 127.215C178.03 125.988 175.423 124.11 173.2 121.58C171.053 119.05 169.98 115.638 169.98 111.345C169.98 107.818 170.977 104.598 172.97 101.685C175.04 98.7717 177.953 96.4717 181.71 94.785C185.543 93.0983 190.028 92.255 195.165 92.255C202.755 92.255 208.812 94.1717 213.335 98.005C217.858 101.762 220.35 106.86 220.81 113.3H205.4C205.17 110.77 204.097 108.777 202.18 107.32C200.34 105.787 197.848 105.02 194.705 105.02C191.792 105.02 189.53 105.557 187.92 106.63C186.387 107.703 185.62 109.198 185.62 111.115C185.62 113.262 186.693 114.91 188.84 116.06C190.987 117.133 194.322 118.245 198.845 119.395C203.445 120.545 207.24 121.733 210.23 122.96C213.22 124.187 215.788 126.103 217.935 128.71C220.158 131.24 221.308 134.613 221.385 138.83C221.385 142.51 220.35 145.807 218.28 148.72C216.287 151.633 213.373 153.933 209.54 155.62C205.783 157.23 201.375 158.035 196.315 158.035Z" fill="black"/>
<path d="M296.68 106.515V137.335C296.68 139.482 297.178 141.053 298.175 142.05C299.248 142.97 301.012 143.43 303.465 143.43H310.94V157H300.82C287.25 157 280.465 150.407 280.465 137.22V106.515H272.875V93.29H280.465V77.535H296.68V93.29H310.94V106.515H296.68Z" fill="black"/>
<path d="M392.035 103.18C394.105 99.8067 396.788 97.1617 400.085 95.245C403.458 93.3283 407.292 92.37 411.585 92.37V109.275H407.33C402.27 109.275 398.437 110.463 395.83 112.84C393.3 115.217 392.035 119.357 392.035 125.26V157H375.935V93.29H392.035V103.18Z" fill="black"/>
<path d="M492.1 85.7C489.263 85.7 486.887 84.8183 484.97 83.055C483.13 81.215 482.21 78.9533 482.21 76.27C482.21 73.5867 483.13 71.3633 484.97 69.6C486.887 67.76 489.263 66.84 492.1 66.84C494.937 66.84 497.275 67.76 499.115 69.6C501.032 71.3633 501.99 73.5867 501.99 76.27C501.99 78.9533 501.032 81.215 499.115 83.055C497.275 84.8183 494.937 85.7 492.1 85.7ZM500.035 93.29V157H483.935V93.29H500.035Z" fill="black"/>
<path d="M557.795 123.915C557.795 117.475 559.06 111.763 561.59 106.78C564.197 101.797 567.723 97.9633 572.17 95.28C576.617 92.5967 581.562 91.255 587.005 91.255C591.145 91.255 595.093 92.175 598.85 94.015C602.607 95.7783 605.597 98.155 607.82 101.145V70.9H624.15V156H607.82V146.57C605.827 149.713 603.028 152.243 599.425 154.16C595.822 156.077 591.643 157.035 586.89 157.035C581.523 157.035 576.617 155.655 572.17 152.895C567.723 150.135 564.197 146.263 561.59 141.28C559.06 136.22 557.795 130.432 557.795 123.915ZM607.935 124.145C607.935 120.235 607.168 116.9 605.635 114.14C604.102 111.303 602.032 109.157 599.425 107.7C596.818 106.167 594.02 105.4 591.03 105.4C588.04 105.4 585.28 106.128 582.75 107.585C580.22 109.042 578.15 111.188 576.54 114.025C575.007 116.785 574.24 120.082 574.24 123.915C574.24 127.748 575.007 131.122 576.54 134.035C578.15 136.872 580.22 139.057 582.75 140.59C585.357 142.123 588.117 142.89 591.03 142.89C594.02 142.89 596.818 142.162 599.425 140.705C602.032 139.172 604.102 137.025 605.635 134.265C607.168 131.428 607.935 128.055 607.935 124.145Z" fill="black"/>
<path d="M724.16 122.765C724.16 125.065 724.007 127.135 723.7 128.975H677.125C677.508 133.575 679.118 137.178 681.955 139.785C684.792 142.392 688.28 143.695 692.42 143.695C698.4 143.695 702.655 141.127 705.185 135.99H722.55C720.71 142.123 717.183 147.183 711.97 151.17C706.757 155.08 700.355 157.035 692.765 157.035C686.632 157.035 681.112 155.693 676.205 153.01C671.375 150.25 667.58 146.378 664.82 141.395C662.137 136.412 660.795 130.662 660.795 124.145C660.795 117.552 662.137 111.763 664.82 106.78C667.503 101.797 671.26 97.9633 676.09 95.28C680.92 92.5967 686.478 91.255 692.765 91.255C698.822 91.255 704.227 92.5583 708.98 95.165C713.81 97.7717 717.528 101.49 720.135 106.32C722.818 111.073 724.16 116.555 724.16 122.765ZM707.485 118.165C707.408 114.025 705.913 110.728 703 108.275C700.087 105.745 696.522 104.48 692.305 104.48C688.318 104.48 684.945 105.707 682.185 108.16C679.502 110.537 677.853 113.872 677.24 118.165H707.485Z" fill="black"/>
<path d="M0.442 285.502C0.442 281.259 1.30533 277.559 3.032 274.402C4.75867 271.195 7.15133 268.729 10.21 267.002C13.2687 265.226 16.7713 264.338 20.718 264.338C25.7993 264.338 29.9927 265.621 33.298 268.186C36.6527 270.702 38.8973 274.254 40.032 278.842H28.858C28.266 277.066 27.2547 275.685 25.824 274.698C24.4427 273.662 22.716 273.144 20.644 273.144C17.684 273.144 15.3407 274.229 13.614 276.4C11.8873 278.521 11.024 281.555 11.024 285.502C11.024 289.399 11.8873 292.433 13.614 294.604C15.3407 296.725 17.684 297.786 20.644 297.786C24.8373 297.786 27.5753 295.911 28.858 292.162H40.032C38.8973 296.602 36.6527 300.129 33.298 302.744C29.9433 305.359 25.75 306.666 20.718 306.666C16.7713 306.666 13.2687 305.803 10.21 304.076C7.15133 302.3 4.75867 299.833 3.032 296.676C1.30533 293.469 0.442 289.745 0.442 285.502ZM57.9816 271.368C59.3136 269.197 61.0403 267.495 63.1616 266.262C65.3323 265.029 67.799 264.412 70.5616 264.412V275.29H67.8236C64.5676 275.29 62.101 276.055 60.4236 277.584C58.7956 279.113 57.9816 281.777 57.9816 285.576V306H47.6216V265.004H57.9816V271.368ZM115.65 284.614C115.65 286.094 115.551 287.426 115.354 288.61H85.3836C85.6303 291.57 86.6663 293.889 88.4916 295.566C90.3169 297.243 92.5616 298.082 95.2256 298.082C99.0736 298.082 101.812 296.429 103.44 293.124H114.614C113.43 297.071 111.16 300.327 107.806 302.892C104.451 305.408 100.332 306.666 95.4476 306.666C91.5009 306.666 87.9489 305.803 84.7916 304.076C81.6836 302.3 79.2416 299.809 77.4656 296.602C75.7389 293.395 74.8756 289.695 74.8756 285.502C74.8756 281.259 75.7389 277.535 77.4656 274.328C79.1923 271.121 81.6096 268.655 84.7176 266.928C87.8256 265.201 91.4023 264.338 95.4476 264.338C99.3449 264.338 102.823 265.177 105.882 266.854C108.99 268.531 111.382 270.924 113.06 274.032C114.786 277.091 115.65 280.618 115.65 284.614ZM104.92 281.654C104.87 278.99 103.908 276.869 102.034 275.29C100.159 273.662 97.8649 272.848 95.1516 272.848C92.5863 272.848 90.4156 273.637 88.6396 275.216C86.9129 276.745 85.8523 278.891 85.4576 281.654H104.92ZM120.547 285.354C120.547 281.21 121.361 277.535 122.989 274.328C124.667 271.121 126.911 268.655 129.723 266.928C132.585 265.201 135.767 264.338 139.269 264.338C142.328 264.338 144.992 264.955 147.261 266.188C149.58 267.421 151.43 268.975 152.811 270.85V265.004H163.245V306H152.811V300.006C151.479 301.93 149.629 303.533 147.261 304.816C144.943 306.049 142.254 306.666 139.195 306.666C135.742 306.666 132.585 305.778 129.723 304.002C126.911 302.226 124.667 299.735 122.989 296.528C121.361 293.272 120.547 289.547 120.547 285.354ZM152.811 285.502C152.811 282.986 152.318 280.84 151.331 279.064C150.345 277.239 149.013 275.857 147.335 274.92C145.658 273.933 143.857 273.44 141.933 273.44C140.009 273.44 138.233 273.909 136.605 274.846C134.977 275.783 133.645 277.165 132.609 278.99C131.623 280.766 131.129 282.887 131.129 285.354C131.129 287.821 131.623 289.991 132.609 291.866C133.645 293.691 134.977 295.097 136.605 296.084C138.283 297.071 140.059 297.564 141.933 297.564C143.857 297.564 145.658 297.095 147.335 296.158C149.013 295.171 150.345 293.79 151.331 292.014C152.318 290.189 152.811 288.018 152.811 285.502ZM185.426 273.514V293.346C185.426 294.727 185.746 295.739 186.388 296.38C187.078 296.972 188.213 297.268 189.792 297.268H194.602V306H188.09C179.358 306 174.992 301.757 174.992 293.272V273.514H170.108V265.004H174.992V254.866H185.426V265.004H194.602V273.514H185.426ZM240.163 284.614C240.163 286.094 240.065 287.426 239.867 288.61H209.897C210.144 291.57 211.18 293.889 213.005 295.566C214.831 297.243 217.075 298.082 219.739 298.082C223.587 298.082 226.325 296.429 227.953 293.124H239.127C237.943 297.071 235.674 300.327 232.319 302.892C228.965 305.408 224.845 306.666 219.961 306.666C216.015 306.666 212.463 305.803 209.305 304.076C206.197 302.3 203.755 299.809 201.979 296.602C200.253 293.395 199.389 289.695 199.389 285.502C199.389 281.259 200.253 277.535 201.979 274.328C203.706 271.121 206.123 268.655 209.231 266.928C212.339 265.201 215.916 264.338 219.961 264.338C223.859 264.338 227.337 265.177 230.395 266.854C233.503 268.531 235.896 270.924 237.573 274.032C239.3 277.091 240.163 280.618 240.163 284.614ZM229.433 281.654C229.384 278.99 228.422 276.869 226.547 275.29C224.673 273.662 222.379 272.848 219.665 272.848C217.1 272.848 214.929 273.637 213.153 275.216C211.427 276.745 210.366 278.891 209.971 281.654H229.433ZM304.578 265.004L279.196 325.388H268.17L277.05 304.964L260.622 265.004H272.24L282.822 293.642L293.552 265.004H304.578ZM328.367 306.666C324.42 306.666 320.868 305.803 317.711 304.076C314.553 302.3 312.062 299.809 310.237 296.602C308.461 293.395 307.573 289.695 307.573 285.502C307.573 281.309 308.485 277.609 310.311 274.402C312.185 271.195 314.726 268.729 317.933 267.002C321.139 265.226 324.716 264.338 328.663 264.338C332.609 264.338 336.186 265.226 339.393 267.002C342.599 268.729 345.115 271.195 346.941 274.402C348.815 277.609 349.753 281.309 349.753 285.502C349.753 289.695 348.791 293.395 346.867 296.602C344.992 299.809 342.427 302.3 339.171 304.076C335.964 305.803 332.363 306.666 328.367 306.666ZM328.367 297.638C330.241 297.638 331.993 297.194 333.621 296.306C335.298 295.369 336.63 293.987 337.617 292.162C338.603 290.337 339.097 288.117 339.097 285.502C339.097 281.605 338.061 278.62 335.989 276.548C333.966 274.427 331.475 273.366 328.515 273.366C325.555 273.366 323.063 274.427 321.041 276.548C319.067 278.62 318.081 281.605 318.081 285.502C318.081 289.399 319.043 292.409 320.967 294.53C322.94 296.602 325.407 297.638 328.367 297.638ZM396.054 265.004V306H385.62V300.82C384.288 302.596 382.537 304.002 380.366 305.038C378.245 306.025 375.926 306.518 373.41 306.518C370.203 306.518 367.367 305.852 364.9 304.52C362.433 303.139 360.485 301.141 359.054 298.526C357.673 295.862 356.982 292.705 356.982 289.054V265.004H367.342V287.574C367.342 290.83 368.156 293.346 369.784 295.122C371.412 296.849 373.632 297.712 376.444 297.712C379.305 297.712 381.55 296.849 383.178 295.122C384.806 293.346 385.62 290.83 385.62 287.574V265.004H396.054ZM416.636 271.368C417.968 269.197 419.695 267.495 421.816 266.262C423.987 265.029 426.453 264.412 429.216 264.412V275.29H426.478C423.222 275.29 420.755 276.055 419.078 277.584C417.45 279.113 416.636 281.777 416.636 285.576V306H406.276V265.004H416.636V271.368ZM451.163 285.354C451.163 281.21 451.977 277.535 453.605 274.328C455.282 271.121 457.551 268.655 460.413 266.928C463.274 265.201 466.456 264.338 469.959 264.338C472.623 264.338 475.163 264.93 477.581 266.114C479.998 267.249 481.922 268.778 483.353 270.702V251.24H493.861V306H483.353V299.932C482.07 301.955 480.269 303.583 477.951 304.816C475.632 306.049 472.943 306.666 469.885 306.666C466.431 306.666 463.274 305.778 460.413 304.002C457.551 302.226 455.282 299.735 453.605 296.528C451.977 293.272 451.163 289.547 451.163 285.354ZM483.427 285.502C483.427 282.986 482.933 280.84 481.947 279.064C480.96 277.239 479.628 275.857 477.951 274.92C476.273 273.933 474.473 273.44 472.549 273.44C470.625 273.44 468.849 273.909 467.221 274.846C465.593 275.783 464.261 277.165 463.225 278.99C462.238 280.766 461.745 282.887 461.745 285.354C461.745 287.821 462.238 289.991 463.225 291.866C464.261 293.691 465.593 295.097 467.221 296.084C468.898 297.071 470.674 297.564 472.549 297.564C474.473 297.564 476.273 297.095 477.951 296.158C479.628 295.171 480.96 293.79 481.947 292.014C482.933 290.189 483.427 288.018 483.427 285.502ZM501.315 285.354C501.315 281.21 502.129 277.535 503.757 274.328C505.434 271.121 507.679 268.655 510.491 266.928C513.352 265.201 516.534 264.338 520.037 264.338C523.096 264.338 525.76 264.955 528.029 266.188C530.348 267.421 532.198 268.975 533.579 270.85V265.004H544.013V306H533.579V300.006C532.247 301.93 530.397 303.533 528.029 304.816C525.71 306.049 523.022 306.666 519.963 306.666C516.51 306.666 513.352 305.778 510.491 304.002C507.679 302.226 505.434 299.735 503.757 296.528C502.129 293.272 501.315 289.547 501.315 285.354ZM533.579 285.502C533.579 282.986 533.086 280.84 532.099 279.064C531.112 277.239 529.78 275.857 528.103 274.92C526.426 273.933 524.625 273.44 522.701 273.44C520.777 273.44 519.001 273.909 517.373 274.846C515.745 275.783 514.413 277.165 513.377 278.99C512.39 280.766 511.897 282.887 511.897 285.354C511.897 287.821 512.39 289.991 513.377 291.866C514.413 293.691 515.745 295.097 517.373 296.084C519.05 297.071 520.826 297.564 522.701 297.564C524.625 297.564 526.426 297.095 528.103 296.158C529.78 295.171 531.112 293.79 532.099 292.014C533.086 290.189 533.579 288.018 533.579 285.502ZM559.385 260.12C557.56 260.12 556.031 259.553 554.797 258.418C553.613 257.234 553.021 255.779 553.021 254.052C553.021 252.325 553.613 250.895 554.797 249.76C556.031 248.576 557.56 247.984 559.385 247.984C561.211 247.984 562.715 248.576 563.899 249.76C565.133 250.895 565.749 252.325 565.749 254.052C565.749 255.779 565.133 257.234 563.899 258.418C562.715 259.553 561.211 260.12 559.385 260.12ZM564.491 265.004V306H554.131V265.004H564.491ZM585.087 251.24V306H574.727V251.24H585.087ZM634.543 265.004L609.161 325.388H598.135L607.015 304.964L590.587 265.004H602.205L612.787 293.642L623.517 265.004H634.543ZM680.848 264.412C683.956 264.412 686.719 265.103 689.136 266.484C691.554 267.816 693.428 269.814 694.76 272.478C696.142 275.093 696.832 278.25 696.832 281.95V306H686.472V283.356C686.472 280.1 685.658 277.609 684.03 275.882C682.402 274.106 680.182 273.218 677.37 273.218C674.509 273.218 672.24 274.106 670.562 275.882C668.934 277.609 668.12 280.1 668.12 283.356V306H657.76V251.24H668.12V270.11C669.452 268.334 671.228 266.953 673.448 265.966C675.668 264.93 678.135 264.412 680.848 264.412ZM704.02 285.354C704.02 281.21 704.834 277.535 706.462 274.328C708.139 271.121 710.384 268.655 713.196 266.928C716.057 265.201 719.239 264.338 722.742 264.338C725.801 264.338 728.465 264.955 730.734 266.188C733.053 267.421 734.903 268.975 736.284 270.85V265.004H746.718V306H736.284V300.006C734.952 301.93 733.102 303.533 730.734 304.816C728.415 306.049 725.727 306.666 722.668 306.666C719.215 306.666 716.057 305.778 713.196 304.002C710.384 302.226 708.139 299.735 706.462 296.528C704.834 293.272 704.02 289.547 704.02 285.354ZM736.284 285.502C736.284 282.986 735.791 280.84 734.804 279.064C733.817 277.239 732.485 275.857 730.808 274.92C729.131 273.933 727.33 273.44 725.406 273.44C723.482 273.44 721.706 273.909 720.078 274.846C718.45 275.783 717.118 277.165 716.082 278.99C715.095 280.766 714.602 282.887 714.602 285.354C714.602 287.821 715.095 289.991 716.082 291.866C717.118 293.691 718.45 295.097 720.078 296.084C721.755 297.071 723.531 297.564 725.406 297.564C727.33 297.564 729.131 297.095 730.808 296.158C732.485 295.171 733.817 293.79 734.804 292.014C735.791 290.189 736.284 288.018 736.284 285.502ZM767.196 270.998C768.528 269.025 770.354 267.421 772.672 266.188C775.04 264.955 777.729 264.338 780.738 264.338C784.241 264.338 787.398 265.201 790.21 266.928C793.072 268.655 795.316 271.121 796.944 274.328C798.622 277.485 799.46 281.161 799.46 285.354C799.46 289.547 798.622 293.272 796.944 296.528C795.316 299.735 793.072 302.226 790.21 304.002C787.398 305.778 784.241 306.666 780.738 306.666C777.68 306.666 774.991 306.074 772.672 304.89C770.403 303.657 768.578 302.078 767.196 300.154V306H756.836V251.24H767.196V270.998ZM788.878 285.354C788.878 282.887 788.36 280.766 787.324 278.99C786.338 277.165 785.006 275.783 783.328 274.846C781.7 273.909 779.924 273.44 778 273.44C776.126 273.44 774.35 273.933 772.672 274.92C771.044 275.857 769.712 277.239 768.676 279.064C767.69 280.889 767.196 283.035 767.196 285.502C767.196 287.969 767.69 290.115 768.676 291.94C769.712 293.765 771.044 295.171 772.672 296.158C774.35 297.095 776.126 297.564 778 297.564C779.924 297.564 781.7 297.071 783.328 296.084C785.006 295.097 786.338 293.691 787.324 291.866C788.36 290.041 788.878 287.87 788.878 285.354ZM812.243 260.12C810.417 260.12 808.888 259.553 807.655 258.418C806.471 257.234 805.879 255.779 805.879 254.052C805.879 252.325 806.471 250.895 807.655 249.76C808.888 248.576 810.417 247.984 812.243 247.984C814.068 247.984 815.573 248.576 816.757 249.76C817.99 250.895 818.607 252.325 818.607 254.052C818.607 255.779 817.99 257.234 816.757 258.418C815.573 259.553 814.068 260.12 812.243 260.12ZM817.349 265.004V306H806.989V265.004H817.349ZM839.647 273.514V293.346C839.647 294.727 839.967 295.739 840.609 296.38C841.299 296.972 842.434 297.268 844.013 297.268H848.823V306H842.311C833.579 306 829.213 301.757 829.213 293.272V273.514H824.329V265.004H829.213V254.866H839.647V265.004H848.823V273.514H839.647ZM871.962 306.666C868.607 306.666 865.598 306.074 862.934 304.89C860.27 303.657 858.149 302.004 856.57 299.932C855.041 297.86 854.202 295.566 854.054 293.05H864.488C864.685 294.629 865.45 295.936 866.782 296.972C868.163 298.008 869.865 298.526 871.888 298.526C873.861 298.526 875.391 298.131 876.476 297.342C877.611 296.553 878.178 295.541 878.178 294.308C878.178 292.976 877.487 291.989 876.106 291.348C874.774 290.657 872.628 289.917 869.668 289.128C866.609 288.388 864.093 287.623 862.12 286.834C860.196 286.045 858.519 284.836 857.088 283.208C855.707 281.58 855.016 279.385 855.016 276.622C855.016 274.353 855.657 272.281 856.94 270.406C858.272 268.531 860.147 267.051 862.564 265.966C865.031 264.881 867.917 264.338 871.222 264.338C876.106 264.338 880.003 265.571 882.914 268.038C885.825 270.455 887.428 273.736 887.724 277.88H877.808C877.66 276.252 876.969 274.969 875.736 274.032C874.552 273.045 872.949 272.552 870.926 272.552C869.051 272.552 867.596 272.897 866.56 273.588C865.573 274.279 865.08 275.241 865.08 276.474C865.08 277.855 865.771 278.916 867.152 279.656C868.533 280.347 870.679 281.062 873.59 281.802C876.55 282.542 878.992 283.307 880.916 284.096C882.84 284.885 884.493 286.119 885.874 287.796C887.305 289.424 888.045 291.595 888.094 294.308C888.094 296.676 887.428 298.797 886.096 300.672C884.813 302.547 882.939 304.027 880.472 305.112C878.055 306.148 875.218 306.666 871.962 306.666Z" fill="black"/>
</svg>
