<svg width="818" height="337" viewBox="0 0 818 337" fill="none" xmlns="http://www.w3.org/2000/svg">
<rect x="108.5" y="64.1365" width="100.408" height="103.545" fill="#A9CAB0" stroke="black"/>
<rect x="208.218" y="14.1365" width="100.408" height="153.545" fill="#D9D9D9" stroke="black"/>
<rect x="307.937" y="52.0151" width="100.408" height="115.667" fill="#D9D9D9" stroke="black"/>
<rect x="407.655" y="41.4092" width="100.408" height="126.273" fill="#D9D9D9" stroke="black"/>
<rect x="507.373" y="20.197" width="100.408" height="147.485" fill="#D9D9D9" stroke="black"/>
<rect x="607.092" y="76.2576" width="100.408" height="91.4242" fill="#D9D9D9" stroke="black"/>
<path d="M160.315 158.035C155.102 158.035 150.425 157.115 146.285 155.275C142.145 153.358 138.848 150.79 136.395 147.57C134.018 144.35 132.715 140.785 132.485 136.875H148.7C149.007 139.328 150.195 141.36 152.265 142.97C154.412 144.58 157.057 145.385 160.2 145.385C163.267 145.385 165.643 144.772 167.33 143.545C169.093 142.318 169.975 140.747 169.975 138.83C169.975 136.76 168.902 135.227 166.755 134.23C164.685 133.157 161.35 132.007 156.75 130.78C151.997 129.63 148.087 128.442 145.02 127.215C142.03 125.988 139.423 124.11 137.2 121.58C135.053 119.05 133.98 115.638 133.98 111.345C133.98 107.818 134.977 104.598 136.97 101.685C139.04 98.7717 141.953 96.4717 145.71 94.785C149.543 93.0983 154.028 92.255 159.165 92.255C166.755 92.255 172.812 94.1717 177.335 98.005C181.858 101.762 184.35 106.86 184.81 113.3H169.4C169.17 110.77 168.097 108.777 166.18 107.32C164.34 105.787 161.848 105.02 158.705 105.02C155.792 105.02 153.53 105.557 151.92 106.63C150.387 107.703 149.62 109.198 149.62 111.115C149.62 113.262 150.693 114.91 152.84 116.06C154.987 117.133 158.322 118.245 162.845 119.395C167.445 120.545 171.24 121.733 174.23 122.96C177.22 124.187 179.788 126.103 181.935 128.71C184.158 131.24 185.308 134.613 185.385 138.83C185.385 142.51 184.35 145.807 182.28 148.72C180.287 151.633 177.373 153.933 173.54 155.62C169.783 157.23 165.375 158.035 160.315 158.035Z" fill="black"/>
<path d="M260.68 106.515V137.335C260.68 139.482 261.178 141.053 262.175 142.05C263.248 142.97 265.012 143.43 267.465 143.43H274.94V157H264.82C251.25 157 244.465 150.407 244.465 137.22V106.515H236.875V93.29H244.465V77.535H260.68V93.29H274.94V106.515H260.68Z" fill="black"/>
<path d="M356.035 103.18C358.105 99.8067 360.788 97.1617 364.085 95.245C367.458 93.3283 371.292 92.37 375.585 92.37V109.275H371.33C366.27 109.275 362.437 110.463 359.83 112.84C357.3 115.217 356.035 119.357 356.035 125.26V157H339.935V93.29H356.035V103.18Z" fill="black"/>
<path d="M456.1 85.7C453.263 85.7 450.887 84.8183 448.97 83.055C447.13 81.215 446.21 78.9533 446.21 76.27C446.21 73.5867 447.13 71.3633 448.97 69.6C450.887 67.76 453.263 66.84 456.1 66.84C458.937 66.84 461.275 67.76 463.115 69.6C465.032 71.3633 465.99 73.5867 465.99 76.27C465.99 78.9533 465.032 81.215 463.115 83.055C461.275 84.8183 458.937 85.7 456.1 85.7ZM464.035 93.29V157H447.935V93.29H464.035Z" fill="black"/>
<path d="M521.795 123.915C521.795 117.475 523.06 111.763 525.59 106.78C528.197 101.797 531.723 97.9633 536.17 95.28C540.617 92.5967 545.562 91.255 551.005 91.255C555.145 91.255 559.093 92.175 562.85 94.015C566.607 95.7783 569.597 98.155 571.82 101.145V70.9H588.15V156H571.82V146.57C569.827 149.713 567.028 152.243 563.425 154.16C559.822 156.077 555.643 157.035 550.89 157.035C545.523 157.035 540.617 155.655 536.17 152.895C531.723 150.135 528.197 146.263 525.59 141.28C523.06 136.22 521.795 130.432 521.795 123.915ZM571.935 124.145C571.935 120.235 571.168 116.9 569.635 114.14C568.102 111.303 566.032 109.157 563.425 107.7C560.818 106.167 558.02 105.4 555.03 105.4C552.04 105.4 549.28 106.128 546.75 107.585C544.22 109.042 542.15 111.188 540.54 114.025C539.007 116.785 538.24 120.082 538.24 123.915C538.24 127.748 539.007 131.122 540.54 134.035C542.15 136.872 544.22 139.057 546.75 140.59C549.357 142.123 552.117 142.89 555.03 142.89C558.02 142.89 560.818 142.162 563.425 140.705C566.032 139.172 568.102 137.025 569.635 134.265C571.168 131.428 571.935 128.055 571.935 124.145Z" fill="black"/>
<path d="M688.16 122.765C688.16 125.065 688.007 127.135 687.7 128.975H641.125C641.508 133.575 643.118 137.178 645.955 139.785C648.792 142.392 652.28 143.695 656.42 143.695C662.4 143.695 666.655 141.127 669.185 135.99H686.55C684.71 142.123 681.183 147.183 675.97 151.17C670.757 155.08 664.355 157.035 656.765 157.035C650.632 157.035 645.112 155.693 640.205 153.01C635.375 150.25 631.58 146.378 628.82 141.395C626.137 136.412 624.795 130.662 624.795 124.145C624.795 117.552 626.137 111.763 628.82 106.78C631.503 101.797 635.26 97.9633 640.09 95.28C644.92 92.5967 650.478 91.255 656.765 91.255C662.822 91.255 668.227 92.5583 672.98 95.165C677.81 97.7717 681.528 101.49 684.135 106.32C686.818 111.073 688.16 116.555 688.16 122.765ZM671.485 118.165C671.408 114.025 669.913 110.728 667 108.275C664.087 105.745 660.522 104.48 656.305 104.48C652.318 104.48 648.945 105.707 646.185 108.16C643.502 110.537 641.853 113.872 641.24 118.165H671.485Z" fill="black"/>
<path d="M2.475 286.225C2.475 281.925 3.35 278.175 5.1 274.975C6.85 271.725 9.275 269.225 12.375 267.475C15.475 265.675 19.025 264.775 23.025 264.775C28.175 264.775 32.425 266.075 35.775 268.675C39.175 271.225 41.45 274.825 42.6 279.475H31.275C30.675 277.675 29.65 276.275 28.2 275.275C26.8 274.225 25.05 273.7 22.95 273.7C19.95 273.7 17.575 274.8 15.825 277C14.075 279.15 13.2 282.225 13.2 286.225C13.2 290.175 14.075 293.25 15.825 295.45C17.575 297.6 19.95 298.675 22.95 298.675C27.2 298.675 29.975 296.775 31.275 292.975H42.6C41.45 297.475 39.175 301.05 35.775 303.7C32.375 306.35 28.125 307.675 23.025 307.675C19.025 307.675 15.475 306.8 12.375 305.05C9.275 303.25 6.85 300.75 5.1 297.55C3.35 294.3 2.475 290.525 2.475 286.225ZM60.7922 271.9C62.1422 269.7 63.8922 267.975 66.0422 266.725C68.2422 265.475 70.7422 264.85 73.5422 264.85V275.875H70.7672C67.4672 275.875 64.9672 276.65 63.2672 278.2C61.6172 279.75 60.7922 282.45 60.7922 286.3V307H50.2922V265.45H60.7922V271.9ZM119.239 285.325C119.239 286.825 119.139 288.175 118.939 289.375H88.5645C88.8145 292.375 89.8645 294.725 91.7145 296.425C93.5645 298.125 95.8395 298.975 98.5395 298.975C102.439 298.975 105.214 297.3 106.864 293.95H118.189C116.989 297.95 114.689 301.25 111.289 303.85C107.889 306.4 103.714 307.675 98.7645 307.675C94.7645 307.675 91.1645 306.8 87.9645 305.05C84.8145 303.25 82.3395 300.725 80.5395 297.475C78.7895 294.225 77.9145 290.475 77.9145 286.225C77.9145 281.925 78.7895 278.15 80.5395 274.9C82.2895 271.65 84.7395 269.15 87.8895 267.4C91.0395 265.65 94.6645 264.775 98.7645 264.775C102.714 264.775 106.239 265.625 109.339 267.325C112.489 269.025 114.914 271.45 116.614 274.6C118.364 277.7 119.239 281.275 119.239 285.325ZM108.364 282.325C108.314 279.625 107.339 277.475 105.439 275.875C103.539 274.225 101.214 273.4 98.4645 273.4C95.8645 273.4 93.6645 274.2 91.8645 275.8C90.1145 277.35 89.0395 279.525 88.6395 282.325H108.364ZM124.204 286.075C124.204 281.875 125.029 278.15 126.679 274.9C128.379 271.65 130.654 269.15 133.504 267.4C136.404 265.65 139.629 264.775 143.179 264.775C146.279 264.775 148.979 265.4 151.279 266.65C153.629 267.9 155.504 269.475 156.904 271.375V265.45H167.479V307H156.904V300.925C155.554 302.875 153.679 304.5 151.279 305.8C148.929 307.05 146.204 307.675 143.104 307.675C139.604 307.675 136.404 306.775 133.504 304.975C130.654 303.175 128.379 300.65 126.679 297.4C125.029 294.1 124.204 290.325 124.204 286.075ZM156.904 286.225C156.904 283.675 156.404 281.5 155.404 279.7C154.404 277.85 153.054 276.45 151.354 275.5C149.654 274.5 147.829 274 145.879 274C143.929 274 142.129 274.475 140.479 275.425C138.829 276.375 137.479 277.775 136.429 279.625C135.429 281.425 134.929 283.575 134.929 286.075C134.929 288.575 135.429 290.775 136.429 292.675C137.479 294.525 138.829 295.95 140.479 296.95C142.179 297.95 143.979 298.45 145.879 298.45C147.829 298.45 149.654 297.975 151.354 297.025C153.054 296.025 154.404 294.625 155.404 292.825C156.404 290.975 156.904 288.775 156.904 286.225ZM189.959 274.075V294.175C189.959 295.575 190.284 296.6 190.934 297.25C191.634 297.85 192.784 298.15 194.384 298.15H199.259V307H192.659C183.809 307 179.384 302.7 179.384 294.1V274.075H174.434V265.45H179.384V255.175H189.959V265.45H199.259V274.075H189.959ZM245.436 285.325C245.436 286.825 245.336 288.175 245.136 289.375H214.761C215.011 292.375 216.061 294.725 217.911 296.425C219.761 298.125 222.036 298.975 224.736 298.975C228.636 298.975 231.411 297.3 233.061 293.95H244.386C243.186 297.95 240.886 301.25 237.486 303.85C234.086 306.4 229.911 307.675 224.961 307.675C220.961 307.675 217.361 306.8 214.161 305.05C211.011 303.25 208.536 300.725 206.736 297.475C204.986 294.225 204.111 290.475 204.111 286.225C204.111 281.925 204.986 278.15 206.736 274.9C208.486 271.65 210.936 269.15 214.086 267.4C217.236 265.65 220.861 264.775 224.961 264.775C228.911 264.775 232.436 265.625 235.536 267.325C238.686 269.025 241.111 271.45 242.811 274.6C244.561 277.7 245.436 281.275 245.436 285.325ZM234.561 282.325C234.511 279.625 233.536 277.475 231.636 275.875C229.736 274.225 227.411 273.4 224.661 273.4C222.061 273.4 219.861 274.2 218.061 275.8C216.311 277.35 215.236 279.525 214.836 282.325H234.561ZM310.721 265.45L284.996 326.65H273.821L282.821 305.95L266.171 265.45H277.946L288.671 294.475L299.546 265.45H310.721ZM334.831 307.675C330.831 307.675 327.231 306.8 324.031 305.05C320.831 303.25 318.306 300.725 316.456 297.475C314.656 294.225 313.756 290.475 313.756 286.225C313.756 281.975 314.681 278.225 316.531 274.975C318.431 271.725 321.006 269.225 324.256 267.475C327.506 265.675 331.131 264.775 335.131 264.775C339.131 264.775 342.756 265.675 346.006 267.475C349.256 269.225 351.806 271.725 353.656 274.975C355.556 278.225 356.506 281.975 356.506 286.225C356.506 290.475 355.531 294.225 353.581 297.475C351.681 300.725 349.081 303.25 345.781 305.05C342.531 306.8 338.881 307.675 334.831 307.675ZM334.831 298.525C336.731 298.525 338.506 298.075 340.156 297.175C341.856 296.225 343.206 294.825 344.206 292.975C345.206 291.125 345.706 288.875 345.706 286.225C345.706 282.275 344.656 279.25 342.556 277.15C340.506 275 337.981 273.925 334.981 273.925C331.981 273.925 329.456 275 327.406 277.15C325.406 279.25 324.406 282.275 324.406 286.225C324.406 290.175 325.381 293.225 327.331 295.375C329.331 297.475 331.831 298.525 334.831 298.525ZM403.433 265.45V307H392.858V301.75C391.508 303.55 389.733 304.975 387.533 306.025C385.383 307.025 383.033 307.525 380.483 307.525C377.233 307.525 374.358 306.85 371.858 305.5C369.358 304.1 367.383 302.075 365.933 299.425C364.533 296.725 363.833 293.525 363.833 289.825V265.45H374.333V288.325C374.333 291.625 375.158 294.175 376.808 295.975C378.458 297.725 380.708 298.6 383.558 298.6C386.458 298.6 388.733 297.725 390.383 295.975C392.033 294.175 392.858 291.625 392.858 288.325V265.45H403.433ZM424.293 271.9C425.643 269.7 427.393 267.975 429.543 266.725C431.743 265.475 434.243 264.85 437.043 264.85V275.875H434.268C430.968 275.875 428.468 276.65 426.768 278.2C425.118 279.75 424.293 282.45 424.293 286.3V307H413.793V265.45H424.293V271.9ZM501.737 265.45L476.012 326.65H464.837L473.837 305.95L457.187 265.45H468.962L479.687 294.475L490.562 265.45H501.737ZM546.022 285.325C546.022 286.825 545.922 288.175 545.722 289.375H515.347C515.597 292.375 516.647 294.725 518.497 296.425C520.347 298.125 522.622 298.975 525.322 298.975C529.222 298.975 531.997 297.3 533.647 293.95H544.972C543.772 297.95 541.472 301.25 538.072 303.85C534.672 306.4 530.497 307.675 525.547 307.675C521.547 307.675 517.947 306.8 514.747 305.05C511.597 303.25 509.122 300.725 507.322 297.475C505.572 294.225 504.697 290.475 504.697 286.225C504.697 281.925 505.572 278.15 507.322 274.9C509.072 271.65 511.522 269.15 514.672 267.4C517.822 265.65 521.447 264.775 525.547 264.775C529.497 264.775 533.022 265.625 536.122 267.325C539.272 269.025 541.697 271.45 543.397 274.6C545.147 277.7 546.022 281.275 546.022 285.325ZM535.147 282.325C535.097 279.625 534.122 277.475 532.222 275.875C530.322 274.225 527.997 273.4 525.247 273.4C522.647 273.4 520.447 274.2 518.647 275.8C516.897 277.35 515.822 279.525 515.422 282.325H535.147ZM550.986 286.075C550.986 281.875 551.811 278.15 553.461 274.9C555.161 271.65 557.436 269.15 560.286 267.4C563.186 265.65 566.411 264.775 569.961 264.775C573.061 264.775 575.761 265.4 578.061 266.65C580.411 267.9 582.286 269.475 583.686 271.375V265.45H594.261V307H583.686V300.925C582.336 302.875 580.461 304.5 578.061 305.8C575.711 307.05 572.986 307.675 569.886 307.675C566.386 307.675 563.186 306.775 560.286 304.975C557.436 303.175 555.161 300.65 553.461 297.4C551.811 294.1 550.986 290.325 550.986 286.075ZM583.686 286.225C583.686 283.675 583.186 281.5 582.186 279.7C581.186 277.85 579.836 276.45 578.136 275.5C576.436 274.5 574.611 274 572.661 274C570.711 274 568.911 274.475 567.261 275.425C565.611 276.375 564.261 277.775 563.211 279.625C562.211 281.425 561.711 283.575 561.711 286.075C561.711 288.575 562.211 290.775 563.211 292.675C564.261 294.525 565.611 295.95 567.261 296.95C568.961 297.95 570.761 298.45 572.661 298.45C574.611 298.45 576.436 297.975 578.136 297.025C579.836 296.025 581.186 294.625 582.186 292.825C583.186 290.975 583.686 288.775 583.686 286.225ZM615.016 271.9C616.366 269.7 618.116 267.975 620.266 266.725C622.466 265.475 624.966 264.85 627.766 264.85V275.875H624.991C621.691 275.875 619.191 276.65 617.491 278.2C615.841 279.75 615.016 282.45 615.016 286.3V307H604.516V265.45H615.016V271.9ZM668.984 264.775C672.084 264.775 674.809 265.4 677.159 266.65C679.509 267.85 681.359 269.425 682.709 271.375V265.45H693.284V307.3C693.284 311.15 692.509 314.575 690.959 317.575C689.409 320.625 687.084 323.025 683.984 324.775C680.884 326.575 677.134 327.475 672.734 327.475C666.834 327.475 661.984 326.1 658.184 323.35C654.434 320.6 652.309 316.85 651.809 312.1H662.234C662.784 314 663.959 315.5 665.759 316.6C667.609 317.75 669.834 318.325 672.434 318.325C675.484 318.325 677.959 317.4 679.859 315.55C681.759 313.75 682.709 311 682.709 307.3V300.85C681.359 302.8 679.484 304.425 677.084 305.725C674.734 307.025 672.034 307.675 668.984 307.675C665.484 307.675 662.284 306.775 659.384 304.975C656.484 303.175 654.184 300.65 652.484 297.4C650.834 294.1 650.009 290.325 650.009 286.075C650.009 281.875 650.834 278.15 652.484 274.9C654.184 271.65 656.459 269.15 659.309 267.4C662.209 265.65 665.434 264.775 668.984 264.775ZM682.709 286.225C682.709 283.675 682.209 281.5 681.209 279.7C680.209 277.85 678.859 276.45 677.159 275.5C675.459 274.5 673.634 274 671.684 274C669.734 274 667.934 274.475 666.284 275.425C664.634 276.375 663.284 277.775 662.234 279.625C661.234 281.425 660.734 283.575 660.734 286.075C660.734 288.575 661.234 290.775 662.234 292.675C663.284 294.525 664.634 295.95 666.284 296.95C667.984 297.95 669.784 298.45 671.684 298.45C673.634 298.45 675.459 297.975 677.159 297.025C678.859 296.025 680.209 294.625 681.209 292.825C682.209 290.975 682.709 288.775 682.709 286.225ZM721.989 307.675C717.989 307.675 714.389 306.8 711.189 305.05C707.989 303.25 705.464 300.725 703.614 297.475C701.814 294.225 700.914 290.475 700.914 286.225C700.914 281.975 701.839 278.225 703.689 274.975C705.589 271.725 708.164 269.225 711.414 267.475C714.664 265.675 718.289 264.775 722.289 264.775C726.289 264.775 729.914 265.675 733.164 267.475C736.414 269.225 738.964 271.725 740.814 274.975C742.714 278.225 743.664 281.975 743.664 286.225C743.664 290.475 742.689 294.225 740.739 297.475C738.839 300.725 736.239 303.25 732.939 305.05C729.689 306.8 726.039 307.675 721.989 307.675ZM721.989 298.525C723.889 298.525 725.664 298.075 727.314 297.175C729.014 296.225 730.364 294.825 731.364 292.975C732.364 291.125 732.864 288.875 732.864 286.225C732.864 282.275 731.814 279.25 729.714 277.15C727.664 275 725.139 273.925 722.139 273.925C719.139 273.925 716.614 275 714.564 277.15C712.564 279.25 711.564 282.275 711.564 286.225C711.564 290.175 712.539 293.225 714.489 295.375C716.489 297.475 718.989 298.525 721.989 298.525ZM748.666 286.075C748.666 281.875 749.491 278.15 751.141 274.9C752.841 271.65 755.116 269.15 757.966 267.4C760.866 265.65 764.091 264.775 767.641 264.775C770.741 264.775 773.441 265.4 775.741 266.65C778.091 267.9 779.966 269.475 781.366 271.375V265.45H791.941V307H781.366V300.925C780.016 302.875 778.141 304.5 775.741 305.8C773.391 307.05 770.666 307.675 767.566 307.675C764.066 307.675 760.866 306.775 757.966 304.975C755.116 303.175 752.841 300.65 751.141 297.4C749.491 294.1 748.666 290.325 748.666 286.075ZM781.366 286.225C781.366 283.675 780.866 281.5 779.866 279.7C778.866 277.85 777.516 276.45 775.816 275.5C774.116 274.5 772.291 274 770.341 274C768.391 274 766.591 274.475 764.941 275.425C763.291 276.375 761.941 277.775 760.891 279.625C759.891 281.425 759.391 283.575 759.391 286.075C759.391 288.575 759.891 290.775 760.891 292.675C761.941 294.525 763.291 295.95 764.941 296.95C766.641 297.95 768.441 298.45 770.341 298.45C772.291 298.45 774.116 297.975 775.816 297.025C777.516 296.025 778.866 294.625 779.866 292.825C780.866 290.975 781.366 288.775 781.366 286.225ZM812.696 251.5V307H802.196V251.5H812.696Z" fill="black"/>
</svg>
