<svg width="688" height="281" viewBox="0 0 688 281" fill="none" xmlns="http://www.w3.org/2000/svg">
<path d="M143.908 64.1365H43.5V167.682H143.908V64.1365Z" fill="#A9CAB0" stroke="black"/>
<path d="M243.626 14.1365H143.218V167.681H243.626V14.1365Z" fill="#D9D9D9" stroke="black"/>
<path d="M343.345 52.0151H242.937V167.682H343.345V52.0151Z" fill="#D9D9D9" stroke="black"/>
<path d="M443.063 41.4092H342.655V167.682H443.063V41.4092Z" fill="#D9D9D9" stroke="black"/>
<path d="M542.781 20.197H442.373V167.682H542.781V20.197Z" fill="#D9D9D9" stroke="black"/>
<path d="M642.5 76.2576H542.092V167.682H642.5V76.2576Z" fill="#D9D9D9" stroke="black"/>
<path d="M95.315 158.035C90.1017 158.035 85.425 157.115 81.285 155.275C77.145 153.358 73.8483 150.79 71.395 147.57C69.0183 144.35 67.715 140.785 67.485 136.875H83.7C84.0067 139.328 85.195 141.36 87.265 142.97C89.4117 144.58 92.0567 145.385 95.2 145.385C98.2667 145.385 100.643 144.772 102.33 143.545C104.093 142.318 104.975 140.747 104.975 138.83C104.975 136.76 103.902 135.227 101.755 134.23C99.685 133.157 96.35 132.007 91.75 130.78C86.9967 129.63 83.0867 128.442 80.02 127.215C77.03 125.988 74.4233 124.11 72.2 121.58C70.0533 119.05 68.98 115.638 68.98 111.345C68.98 107.818 69.9767 104.598 71.97 101.685C74.04 98.7717 76.9533 96.4717 80.71 94.785C84.5433 93.0983 89.0283 92.255 94.165 92.255C101.755 92.255 107.812 94.1717 112.335 98.005C116.858 101.762 119.35 106.86 119.81 113.3H104.4C104.17 110.77 103.097 108.777 101.18 107.32C99.34 105.787 96.8483 105.02 93.705 105.02C90.7917 105.02 88.53 105.557 86.92 106.63C85.3867 107.703 84.62 109.198 84.62 111.115C84.62 113.262 85.6933 114.91 87.84 116.06C89.9867 117.133 93.3217 118.245 97.845 119.395C102.445 120.545 106.24 121.733 109.23 122.96C112.22 124.187 114.788 126.103 116.935 128.71C119.158 131.24 120.308 134.613 120.385 138.83C120.385 142.51 119.35 145.807 117.28 148.72C115.287 151.633 112.373 153.933 108.54 155.62C104.783 157.23 100.375 158.035 95.315 158.035Z" fill="black"/>
<path d="M195.68 106.515V137.335C195.68 139.482 196.178 141.053 197.175 142.05C198.248 142.97 200.012 143.43 202.465 143.43H209.94V157H199.82C186.25 157 179.465 150.407 179.465 137.22V106.515H171.875V93.29H179.465V77.535H195.68V93.29H209.94V106.515H195.68Z" fill="black"/>
<path d="M291.035 103.18C293.105 99.8067 295.788 97.1617 299.085 95.245C302.458 93.3283 306.292 92.37 310.585 92.37V109.275H306.33C301.27 109.275 297.437 110.463 294.83 112.84C292.3 115.217 291.035 119.357 291.035 125.26V157H274.935V93.29H291.035V103.18Z" fill="black"/>
<path d="M391.1 85.7C388.263 85.7 385.887 84.8183 383.97 83.055C382.13 81.215 381.21 78.9533 381.21 76.27C381.21 73.5867 382.13 71.3633 383.97 69.6C385.887 67.76 388.263 66.84 391.1 66.84C393.937 66.84 396.275 67.76 398.115 69.6C400.032 71.3633 400.99 73.5867 400.99 76.27C400.99 78.9533 400.032 81.215 398.115 83.055C396.275 84.8183 393.937 85.7 391.1 85.7ZM399.035 93.29V157H382.935V93.29H399.035Z" fill="black"/>
<path d="M456.795 123.915C456.795 117.475 458.06 111.763 460.59 106.78C463.197 101.797 466.723 97.9633 471.17 95.28C475.617 92.5967 480.562 91.255 486.005 91.255C490.145 91.255 494.093 92.175 497.85 94.015C501.607 95.7783 504.597 98.155 506.82 101.145V70.9H523.15V156H506.82V146.57C504.827 149.713 502.028 152.243 498.425 154.16C494.822 156.077 490.643 157.035 485.89 157.035C480.523 157.035 475.617 155.655 471.17 152.895C466.723 150.135 463.197 146.263 460.59 141.28C458.06 136.22 456.795 130.432 456.795 123.915ZM506.935 124.145C506.935 120.235 506.168 116.9 504.635 114.14C503.102 111.303 501.032 109.157 498.425 107.7C495.818 106.167 493.02 105.4 490.03 105.4C487.04 105.4 484.28 106.128 481.75 107.585C479.22 109.042 477.15 111.188 475.54 114.025C474.007 116.785 473.24 120.082 473.24 123.915C473.24 127.748 474.007 131.122 475.54 134.035C477.15 136.872 479.22 139.057 481.75 140.59C484.357 142.123 487.117 142.89 490.03 142.89C493.02 142.89 495.818 142.162 498.425 140.705C501.032 139.172 503.102 137.025 504.635 134.265C506.168 131.428 506.935 128.055 506.935 124.145Z" fill="black"/>
<path d="M623.16 122.765C623.16 125.065 623.007 127.135 622.7 128.975H576.125C576.508 133.575 578.118 137.178 580.955 139.785C583.792 142.392 587.28 143.695 591.42 143.695C597.4 143.695 601.655 141.127 604.185 135.99H621.55C619.71 142.123 616.183 147.183 610.97 151.17C605.757 155.08 599.355 157.035 591.765 157.035C585.632 157.035 580.112 155.693 575.205 153.01C570.375 150.25 566.58 146.378 563.82 141.395C561.137 136.412 559.795 130.662 559.795 124.145C559.795 117.552 561.137 111.763 563.82 106.78C566.503 101.797 570.26 97.9633 575.09 95.28C579.92 92.5967 585.478 91.255 591.765 91.255C597.822 91.255 603.227 92.5583 607.98 95.165C612.81 97.7717 616.528 101.49 619.135 106.32C621.818 111.073 623.16 116.555 623.16 122.765ZM606.485 118.165C606.408 114.025 604.913 110.728 602 108.275C599.087 105.745 595.522 104.48 591.305 104.48C587.318 104.48 583.945 105.707 581.185 108.16C578.502 110.537 576.853 113.872 576.24 118.165H606.485Z" fill="black"/>
<path d="M23.625 251.675C19.625 251.675 16.025 250.8 12.825 249.05C9.625 247.25 7.1 244.725 5.25 241.475C3.45 238.225 2.55 234.475 2.55 230.225C2.55 225.975 3.475 222.225 5.325 218.975C7.225 215.725 9.8 213.225 13.05 211.475C16.3 209.675 19.925 208.775 23.925 208.775C27.925 208.775 31.55 209.675 34.8 211.475C38.05 213.225 40.6 215.725 42.45 218.975C44.35 222.225 45.3 225.975 45.3 230.225C45.3 234.475 44.325 238.225 42.375 241.475C40.475 244.725 37.875 247.25 34.575 249.05C31.325 250.8 27.675 251.675 23.625 251.675ZM23.625 242.525C25.525 242.525 27.3 242.075 28.95 241.175C30.65 240.225 32 238.825 33 236.975C34 235.125 34.5 232.875 34.5 230.225C34.5 226.275 33.45 223.25 31.35 221.15C29.3 219 26.775 217.925 23.775 217.925C20.775 217.925 18.25 219 16.2 221.15C14.2 223.25 13.2 226.275 13.2 230.225C13.2 234.175 14.175 237.225 16.125 239.375C18.125 241.475 20.625 242.525 23.625 242.525ZM76.0271 208.85C80.9772 208.85 84.9771 210.425 88.0271 213.575C91.0771 216.675 92.6021 221.025 92.6021 226.625V251H82.1021V228.05C82.1021 224.75 81.2771 222.225 79.6272 220.475C77.9772 218.675 75.7272 217.775 72.8772 217.775C69.9772 217.775 67.6771 218.675 65.9771 220.475C64.3271 222.225 63.5021 224.75 63.5021 228.05V251H53.0021V209.45H63.5021V214.625C64.9021 212.825 66.6771 211.425 68.8271 210.425C71.0271 209.375 73.4271 208.85 76.0271 208.85ZM141.212 229.325C141.212 230.825 141.112 232.175 140.912 233.375H110.537C110.787 236.375 111.837 238.725 113.687 240.425C115.537 242.125 117.812 242.975 120.512 242.975C124.412 242.975 127.187 241.3 128.837 237.95H140.162C138.962 241.95 136.662 245.25 133.262 247.85C129.862 250.4 125.687 251.675 120.737 251.675C116.737 251.675 113.137 250.8 109.937 249.05C106.787 247.25 104.312 244.725 102.512 241.475C100.762 238.225 99.8871 234.475 99.8871 230.225C99.8871 225.925 100.762 222.15 102.512 218.9C104.262 215.65 106.712 213.15 109.862 211.4C113.012 209.65 116.637 208.775 120.737 208.775C124.687 208.775 128.212 209.625 131.312 211.325C134.462 213.025 136.887 215.45 138.587 218.6C140.337 221.7 141.212 225.275 141.212 229.325ZM130.337 226.325C130.287 223.625 129.312 221.475 127.412 219.875C125.512 218.225 123.187 217.4 120.437 217.4C117.837 217.4 115.637 218.2 113.837 219.8C112.087 221.35 111.012 223.525 110.612 226.325H130.337ZM182.647 251.675C179.247 251.675 176.197 251.075 173.497 249.875C170.797 248.625 168.647 246.95 167.047 244.85C165.497 242.75 164.647 240.425 164.497 237.875H175.072C175.272 239.475 176.047 240.8 177.397 241.85C178.797 242.9 180.522 243.425 182.572 243.425C184.572 243.425 186.122 243.025 187.222 242.225C188.372 241.425 188.947 240.4 188.947 239.15C188.947 237.8 188.247 236.8 186.847 236.15C185.497 235.45 183.322 234.7 180.322 233.9C177.222 233.15 174.672 232.375 172.672 231.575C170.722 230.775 169.022 229.55 167.572 227.9C166.172 226.25 165.472 224.025 165.472 221.225C165.472 218.925 166.122 216.825 167.422 214.925C168.772 213.025 170.672 211.525 173.122 210.425C175.622 209.325 178.547 208.775 181.897 208.775C186.847 208.775 190.797 210.025 193.747 212.525C196.697 214.975 198.322 218.3 198.622 222.5H188.572C188.422 220.85 187.722 219.55 186.472 218.6C185.272 217.6 183.647 217.1 181.597 217.1C179.697 217.1 178.222 217.45 177.172 218.15C176.172 218.85 175.672 219.825 175.672 221.075C175.672 222.475 176.372 223.55 177.772 224.3C179.172 225 181.347 225.725 184.297 226.475C187.297 227.225 189.772 228 191.722 228.8C193.672 229.6 195.347 230.85 196.747 232.55C198.197 234.2 198.947 236.4 198.997 239.15C198.997 241.55 198.322 243.7 196.972 245.6C195.672 247.5 193.772 249 191.272 250.1C188.822 251.15 185.947 251.675 182.647 251.675ZM219.841 218.075V238.175C219.841 239.575 220.166 240.6 220.816 241.25C221.516 241.85 222.666 242.15 224.266 242.15H229.141V251H222.541C213.691 251 209.266 246.7 209.266 238.1V218.075H204.316V209.45H209.266V199.175H219.841V209.45H229.141V218.075H219.841ZM275.319 229.325C275.319 230.825 275.219 232.175 275.019 233.375H244.644C244.894 236.375 245.944 238.725 247.794 240.425C249.644 242.125 251.919 242.975 254.619 242.975C258.519 242.975 261.294 241.3 262.944 237.95H274.269C273.069 241.95 270.769 245.25 267.369 247.85C263.969 250.4 259.794 251.675 254.844 251.675C250.844 251.675 247.244 250.8 244.044 249.05C240.894 247.25 238.419 244.725 236.619 241.475C234.869 238.225 233.994 234.475 233.994 230.225C233.994 225.925 234.869 222.15 236.619 218.9C238.369 215.65 240.819 213.15 243.969 211.4C247.119 209.65 250.744 208.775 254.844 208.775C258.794 208.775 262.319 209.625 265.419 211.325C268.569 213.025 270.994 215.45 272.694 218.6C274.444 221.7 275.319 225.275 275.319 229.325ZM264.444 226.325C264.394 223.625 263.419 221.475 261.519 219.875C259.619 218.225 257.294 217.4 254.544 217.4C251.944 217.4 249.744 218.2 247.944 219.8C246.194 221.35 245.119 223.525 244.719 226.325H264.444ZM293.483 215.45C294.833 213.55 296.683 211.975 299.033 210.725C301.433 209.425 304.158 208.775 307.208 208.775C310.758 208.775 313.958 209.65 316.808 211.4C319.708 213.15 321.983 215.65 323.633 218.9C325.333 222.1 326.183 225.825 326.183 230.075C326.183 234.325 325.333 238.1 323.633 241.4C321.983 244.65 319.708 247.175 316.808 248.975C313.958 250.775 310.758 251.675 307.208 251.675C304.158 251.675 301.458 251.05 299.108 249.8C296.808 248.55 294.933 246.975 293.483 245.075V270.8H282.983V209.45H293.483V215.45ZM315.458 230.075C315.458 227.575 314.933 225.425 313.883 223.625C312.883 221.775 311.533 220.375 309.833 219.425C308.183 218.475 306.383 218 304.433 218C302.533 218 300.733 218.5 299.033 219.5C297.383 220.45 296.033 221.85 294.983 223.7C293.983 225.55 293.483 227.725 293.483 230.225C293.483 232.725 293.983 234.9 294.983 236.75C296.033 238.6 297.383 240.025 299.033 241.025C300.733 241.975 302.533 242.45 304.433 242.45C306.383 242.45 308.183 241.95 309.833 240.95C311.533 239.95 312.883 238.525 313.883 236.675C314.933 234.825 315.458 232.625 315.458 230.075ZM348.984 230.075C348.984 225.875 349.809 222.15 351.459 218.9C353.159 215.65 355.434 213.15 358.284 211.4C361.184 209.65 364.409 208.775 367.959 208.775C371.059 208.775 373.759 209.4 376.059 210.65C378.409 211.9 380.284 213.475 381.684 215.375V209.45H392.259V251H381.684V244.925C380.334 246.875 378.459 248.5 376.059 249.8C373.709 251.05 370.984 251.675 367.884 251.675C364.384 251.675 361.184 250.775 358.284 248.975C355.434 247.175 353.159 244.65 351.459 241.4C349.809 238.1 348.984 234.325 348.984 230.075ZM381.684 230.225C381.684 227.675 381.184 225.5 380.184 223.7C379.184 221.85 377.834 220.45 376.134 219.5C374.434 218.5 372.609 218 370.659 218C368.709 218 366.909 218.475 365.259 219.425C363.609 220.375 362.259 221.775 361.209 223.625C360.209 225.425 359.709 227.575 359.709 230.075C359.709 232.575 360.209 234.775 361.209 236.675C362.259 238.525 363.609 239.95 365.259 240.95C366.959 241.95 368.759 242.45 370.659 242.45C372.609 242.45 374.434 241.975 376.134 241.025C377.834 240.025 379.184 238.625 380.184 236.825C381.184 234.975 381.684 232.775 381.684 230.225ZM414.739 218.075V238.175C414.739 239.575 415.064 240.6 415.714 241.25C416.414 241.85 417.564 242.15 419.164 242.15H424.039V251H417.439C408.589 251 404.164 246.7 404.164 238.1V218.075H399.214V209.45H404.164V199.175H414.739V209.45H424.039V218.075H414.739ZM446.762 230.075C446.762 225.875 447.587 222.15 449.237 218.9C450.937 215.65 453.212 213.15 456.062 211.4C458.962 209.65 462.187 208.775 465.737 208.775C468.837 208.775 471.537 209.4 473.837 210.65C476.187 211.9 478.062 213.475 479.462 215.375V209.45H490.037V251H479.462V244.925C478.112 246.875 476.237 248.5 473.837 249.8C471.487 251.05 468.762 251.675 465.662 251.675C462.162 251.675 458.962 250.775 456.062 248.975C453.212 247.175 450.937 244.65 449.237 241.4C447.587 238.1 446.762 234.325 446.762 230.075ZM479.462 230.225C479.462 227.675 478.962 225.5 477.962 223.7C476.962 221.85 475.612 220.45 473.912 219.5C472.212 218.5 470.387 218 468.437 218C466.487 218 464.687 218.475 463.037 219.425C461.387 220.375 460.037 221.775 458.987 223.625C457.987 225.425 457.487 227.575 457.487 230.075C457.487 232.575 457.987 234.775 458.987 236.675C460.037 238.525 461.387 239.95 463.037 240.95C464.737 241.95 466.537 242.45 468.437 242.45C470.387 242.45 472.212 241.975 473.912 241.025C475.612 240.025 476.962 238.625 477.962 236.825C478.962 234.975 479.462 232.775 479.462 230.225ZM530.388 218.075V238.175C530.388 239.575 530.713 240.6 531.363 241.25C532.063 241.85 533.213 242.15 534.813 242.15H539.688V251H533.088C524.238 251 519.813 246.7 519.813 238.1V218.075H514.863V209.45H519.813V199.175H530.388V209.45H539.688V218.075H530.388ZM552.565 204.5C550.715 204.5 549.165 203.925 547.915 202.775C546.715 201.575 546.115 200.1 546.115 198.35C546.115 196.6 546.715 195.15 547.915 194C549.165 192.8 550.715 192.2 552.565 192.2C554.415 192.2 555.94 192.8 557.14 194C558.39 195.15 559.015 196.6 559.015 198.35C559.015 200.1 558.39 201.575 557.14 202.775C555.94 203.925 554.415 204.5 552.565 204.5ZM557.74 209.45V251H547.24V209.45H557.74ZM619.714 208.85C624.814 208.85 628.914 210.425 632.014 213.575C635.164 216.675 636.739 221.025 636.739 226.625V251H626.239V228.05C626.239 224.8 625.414 222.325 623.764 220.625C622.114 218.875 619.864 218 617.014 218C614.164 218 611.889 218.875 610.189 220.625C608.539 222.325 607.714 224.8 607.714 228.05V251H597.214V228.05C597.214 224.8 596.389 222.325 594.739 220.625C593.089 218.875 590.839 218 587.989 218C585.089 218 582.789 218.875 581.089 220.625C579.439 222.325 578.614 224.8 578.614 228.05V251H568.114V209.45H578.614V214.475C579.964 212.725 581.689 211.35 583.789 210.35C585.939 209.35 588.289 208.85 590.839 208.85C594.089 208.85 596.989 209.55 599.539 210.95C602.089 212.3 604.064 214.25 605.464 216.8C606.814 214.4 608.764 212.475 611.314 211.025C613.914 209.575 616.714 208.85 619.714 208.85ZM685.328 229.325C685.328 230.825 685.228 232.175 685.028 233.375H654.653C654.903 236.375 655.953 238.725 657.803 240.425C659.653 242.125 661.928 242.975 664.628 242.975C668.528 242.975 671.303 241.3 672.953 237.95H684.278C683.078 241.95 680.778 245.25 677.378 247.85C673.978 250.4 669.803 251.675 664.853 251.675C660.853 251.675 657.253 250.8 654.053 249.05C650.903 247.25 648.428 244.725 646.628 241.475C644.878 238.225 644.003 234.475 644.003 230.225C644.003 225.925 644.878 222.15 646.628 218.9C648.378 215.65 650.828 213.15 653.978 211.4C657.128 209.65 660.753 208.775 664.853 208.775C668.803 208.775 672.328 209.625 675.428 211.325C678.578 213.025 681.003 215.45 682.703 218.6C684.453 221.7 685.328 225.275 685.328 229.325ZM674.453 226.325C674.403 223.625 673.428 221.475 671.528 219.875C669.628 218.225 667.303 217.4 664.553 217.4C661.953 217.4 659.753 218.2 657.953 219.8C656.203 221.35 655.128 223.525 654.728 226.325H674.453Z" fill="black"/>
</svg>
