<svg width="81" height="81" viewBox="0 0 81 81" fill="none" xmlns="http://www.w3.org/2000/svg">
<rect x="6.5" y="2.5" width="69" height="76" fill="#A9CAB0" stroke="black"/>
<path d="M41.25 72.525C37.6 72.525 34.3 71.9 31.35 70.65C28.45 69.4 26.15 67.6 24.45 65.25C22.75 62.9 21.875 60.125 21.825 56.925H33.075C33.225 59.075 33.975 60.775 35.325 62.025C36.725 63.275 38.625 63.9 41.025 63.9C43.475 63.9 45.4 63.325 46.8 62.175C48.2 60.975 48.9 59.425 48.9 57.525C48.9 55.975 48.425 54.7 47.475 53.7C46.525 52.7 45.325 51.925 43.875 51.375C42.475 50.775 40.525 50.125 38.025 49.425C34.625 48.425 31.85 47.45 29.7 46.5C27.6 45.5 25.775 44.025 24.225 42.075C22.725 40.075 21.975 37.425 21.975 34.125C21.975 31.025 22.75 28.325 24.3 26.025C25.85 23.725 28.025 21.975 30.825 20.775C33.625 19.525 36.825 18.9 40.425 18.9C45.825 18.9 50.2 20.225 53.55 22.875C56.95 25.475 58.825 29.125 59.175 33.825H47.625C47.525 32.025 46.75 30.55 45.3 29.4C43.9 28.2 42.025 27.6 39.675 27.6C37.625 27.6 35.975 28.125 34.725 29.175C33.525 30.225 32.925 31.75 32.925 33.75C32.925 35.15 33.375 36.325 34.275 37.275C35.225 38.175 36.375 38.925 37.725 39.525C39.125 40.075 41.075 40.725 43.575 41.475C46.975 42.475 49.75 43.475 51.9 44.475C54.05 45.475 55.9 46.975 57.45 48.975C59 50.975 59.775 53.6 59.775 56.85C59.775 59.65 59.05 62.25 57.6 64.65C56.15 67.05 54.025 68.975 51.225 70.425C48.425 71.825 45.1 72.525 41.25 72.525Z" fill="black"/>
</svg>
