<svg width="70" height="95" viewBox="0 0 70 95" fill="none" xmlns="http://www.w3.org/2000/svg">
<rect x="0.5" y="18.5" width="69" height="76" fill="#A9CAB0" stroke="black"/>
<path d="M36.075 83.675C32.675 83.675 29.625 83.075 26.925 81.875C24.225 80.625 22.075 78.95 20.475 76.85C18.925 74.75 18.075 72.425 17.925 69.875H28.5C28.7 71.475 29.475 72.8 30.825 73.85C32.225 74.9 33.95 75.425 36 75.425C38 75.425 39.55 75.025 40.65 74.225C41.8 73.425 42.375 72.4 42.375 71.15C42.375 69.8 41.675 68.8 40.275 68.15C38.925 67.45 36.75 66.7 33.75 65.9C30.65 65.15 28.1 64.375 26.1 63.575C24.15 62.775 22.45 61.55 21 59.9C19.6 58.25 18.9 56.025 18.9 53.225C18.9 50.925 19.55 48.825 20.85 46.925C22.2 45.025 24.1 43.525 26.55 42.425C29.05 41.325 31.975 40.775 35.325 40.775C40.275 40.775 44.225 42.025 47.175 44.525C50.125 46.975 51.75 50.3 52.05 54.5H42C41.85 52.85 41.15 51.55 39.9 50.6C38.7 49.6 37.075 49.1 35.025 49.1C33.125 49.1 31.65 49.45 30.6 50.15C29.6 50.85 29.1 51.825 29.1 53.075C29.1 54.475 29.8 55.55 31.2 56.3C32.6 57 34.775 57.725 37.725 58.475C40.725 59.225 43.2 60 45.15 60.8C47.1 61.6 48.775 62.85 50.175 64.55C51.625 66.2 52.375 68.4 52.425 71.15C52.425 73.55 51.75 75.7 50.4 77.6C49.1 79.5 47.2 81 44.7 82.1C42.25 83.15 39.375 83.675 36.075 83.675Z" fill="black"/>
</svg>
